<?xml version="1.0" encoding="UTF-8"?>
<svg version="1.1" xmlns="http://www.w3.org/2000/svg" width="1920" height="1920">
<path d="M0 0 C4.38435302 2.37519681 7.7301094 5.34490845 11.3125 8.75 C12.47063844 9.83539962 13.6294896 10.92003925 14.7890625 12.00390625 C15.34368164 12.52355957 15.89830078 13.04321289 16.46972656 13.57861328 C18.94667332 15.87931271 21.4970001 18.09089653 24.0546875 20.30078125 C26.3366529 22.29406428 28.57228574 24.33493027 30.8125 26.375 C34.18940982 29.42858867 37.63217132 32.34429205 41.1875 35.1875 C46.52139407 39.49535504 51.47515486 44.13859865 56.4519043 48.84643555 C60.03038044 52.21411914 63.65537524 55.43345406 67.5 58.5 C73.48838495 63.27996646 78.99684413 68.53219357 84.5703125 73.78125 C88.76808922 77.73316017 93.08290505 81.52345773 97.47753906 85.25439453 C105.17792447 91.79404337 112.72408916 98.45091217 120.12109375 105.33203125 C124.6913918 109.5674635 129.39164663 113.63526191 134.140625 117.66796875 C141.28110357 123.7416288 148.25766781 129.94727772 155.12109375 136.33203125 C159.6913918 140.5674635 164.39164663 144.63526191 169.140625 148.66796875 C176.28110357 154.7416288 183.25766781 160.94727772 190.12109375 167.33203125 C194.6913918 171.5674635 199.39164663 175.63526191 204.140625 179.66796875 C211.28110357 185.7416288 218.25766781 191.94727772 225.12109375 198.33203125 C229.6913918 202.5674635 234.39164663 206.63526191 239.140625 210.66796875 C246.28110357 216.7416288 253.25766781 222.94727772 260.12109375 229.33203125 C264.6913918 233.5674635 269.39164663 237.63526191 274.140625 241.66796875 C281.28110357 247.7416288 288.25766781 253.94727772 295.12109375 260.33203125 C299.6913918 264.5674635 304.39164663 268.63526191 309.140625 272.66796875 C316.28110357 278.7416288 323.25766781 284.94727772 330.12109375 291.33203125 C334.6913918 295.5674635 339.39164663 299.63526191 344.140625 303.66796875 C351.28110357 309.7416288 358.25766781 315.94727772 365.12109375 322.33203125 C369.6913918 326.5674635 374.39164663 330.63526191 379.140625 334.66796875 C386.28110357 340.7416288 393.25766781 346.94727772 400.12109375 353.33203125 C404.6913918 357.5674635 409.39164663 361.63526191 414.140625 365.66796875 C420.66627531 371.21916343 427.06258628 376.86145879 433.31958008 382.71411133 C436.57331665 385.7383702 439.90240919 388.60000498 443.375 391.375 C449.39669368 396.2064614 454.95437915 401.49211671 460.5703125 406.78125 C464.76808922 410.73316017 469.08290505 414.52345773 473.47753906 418.25439453 C481.17792447 424.79404337 488.72408916 431.45091217 496.12109375 438.33203125 C500.6913918 442.5674635 505.39164663 446.63526191 510.140625 450.66796875 C517.28110357 456.7416288 524.25766781 462.94727772 531.12109375 469.33203125 C537.68847072 475.41821642 544.5353328 481.18625244 551.34155273 487.00195312 C555.89562884 490.89562884 555.89562884 490.89562884 557 492 C557.09849622 493.55758831 557.12674343 495.11965878 557.1276505 496.68035799 C557.13066647 497.70114853 557.13368244 498.72193907 557.1367898 499.77366266 C557.13502033 500.91104282 557.13325086 502.04842298 557.13142776 503.2202692 C557.13450672 505.02158791 557.13450672 505.02158791 557.13764787 506.85929689 C557.14236084 510.2226727 557.14253641 513.58599554 557.14087028 516.94937078 C557.14014256 520.59716835 557.14515415 524.24495858 557.1494453 527.89275306 C557.15704649 535.14133643 557.15921943 542.38991244 557.15977435 549.63849937 C557.16068592 558.31537783 557.16734734 566.99224942 557.17412117 575.66912494 C557.1902058 596.64598058 557.19608743 617.62283551 557.20086992 638.59969621 C557.2032036 648.51861843 557.20680601 658.43754006 557.2105653 668.35646182 C557.22340353 702.2934575 557.23412206 736.23045285 557.2375679 770.1674509 C557.23778954 772.29915959 557.23801132 774.43086827 557.23823325 776.56257695 C557.2384539 778.69951755 557.23867438 780.83645815 557.2388947 782.97339875 C557.23933726 787.26066752 557.23978437 791.5479363 557.24023438 795.83520508 C557.24034377 796.89820412 557.24045316 797.96120316 557.24056586 799.05641429 C557.2441968 833.52711101 557.26011682 867.99778671 557.28342474 902.46847538 C557.30800759 938.89115084 557.32174004 975.31381429 557.32293582 1011.7364983 C557.32310728 1015.73310944 557.32332271 1019.72972057 557.32357025 1023.72633171 C557.32362602 1024.71044897 557.32368179 1025.69456623 557.32373925 1026.70850522 C557.32489111 1042.56332429 557.33592475 1058.41812185 557.35045731 1074.27293365 C557.36480694 1090.20342793 557.368068 1106.13389455 557.36001733 1122.06439353 C557.35555364 1131.53421941 557.3594511 1141.00395615 557.37525584 1150.47377037 C557.38498309 1156.79626452 557.38384921 1163.11869601 557.37381961 1169.44118955 C557.36841119 1173.04578088 557.36776987 1176.65020064 557.38032833 1180.25477798 C557.39373875 1184.13621511 557.38399128 1188.01739671 557.3719368 1191.89884281 C557.37953199 1193.01983481 557.38712718 1194.14082681 557.39495254 1195.29578826 C557.32678991 1205.40913793 554.45802162 1213.12791947 548 1221 C537.07530819 1231.40446839 524.10068815 1231.15241931 509.82653809 1231.12025452 C508.38420292 1231.120691 506.94186784 1231.12156732 505.49953318 1231.12284368 C501.54985008 1231.12507352 497.60019423 1231.12108807 493.6505146 1231.11606562 C489.38613005 1231.11173959 485.12174697 1231.11320907 480.85736084 1231.1139679 C473.473563 1231.11449176 466.08977401 1231.11135926 458.70597839 1231.10573006 C448.0303026 1231.09759652 437.35463107 1231.09499793 426.67895252 1231.09374207 C409.3575805 1231.09155446 392.0362132 1231.08490227 374.71484375 1231.07543945 C357.89062524 1231.0662578 341.06640801 1231.05918065 324.2421875 1231.05493164 C323.20481483 1231.05466892 322.16744215 1231.05440619 321.09863394 1231.05413551 C315.89434223 1231.05283045 310.69005051 1231.05156675 305.48575878 1231.05032361 C262.32383592 1231.03996007 219.1619182 1231.02234968 176 1231 C175.99864347 1230.34822633 175.99728694 1229.69645266 175.99588931 1229.02492827 C175.91520409 1190.37832627 175.82423509 1151.73176067 175.71994839 1113.08521483 C175.70742982 1108.44279642 175.694997 1103.80037777 175.68261719 1099.15795898 C175.68015119 1098.23375382 175.6776852 1097.30954866 175.67514448 1096.35733727 C175.63544252 1081.40123608 175.60268384 1066.44512736 175.57250018 1051.48900428 C175.54136412 1036.1377101 175.5027455 1020.78644783 175.45720994 1005.43518955 C175.42935687 995.96596006 175.40731005 986.49675386 175.39273749 977.02749447 C175.38217906 970.5302632 175.36433935 964.03307709 175.34083296 957.53587987 C175.32749305 953.78978652 175.31730691 950.04375632 175.31578636 946.29763794 C175.31405057 942.22887607 175.296953 938.16031876 175.2784729 934.09159851 C175.28040763 932.91744579 175.28234237 931.74329308 175.28433573 930.53355998 C175.20741465 919.18158016 174.24905417 909.12132644 167 900 C160.35156679 893.60779443 152.17563213 889.88153487 142.92861748 889.86857224 C141.89921858 889.86473109 140.86981968 889.86088995 139.80922687 889.8569324 C138.11519109 889.85823213 138.11519109 889.85823213 136.38693237 889.85955811 C135.18592239 889.85658698 133.9849124 889.85361586 132.74750817 889.8505547 C129.41237162 889.84337429 126.07728659 889.84069537 122.74214602 889.83995724 C119.14553024 889.83810588 115.54892561 889.83055805 111.95231628 889.82382202 C104.08643163 889.81024049 96.22055208 889.80421404 88.35465765 889.79981136 C83.44183208 889.7970482 78.52900848 889.79281067 73.61618423 889.78830719 C60.0107657 889.77611393 46.40534873 889.76581527 32.79992485 889.7624321 C31.92913564 889.76221253 31.05834642 889.76199297 30.16116966 889.76176675 C29.28830699 889.76154847 28.41544433 889.76133019 27.51613128 889.7611053 C25.74740783 889.76066183 23.97868438 889.76021527 22.20996094 889.75976562 C21.33261469 889.7595442 20.45526844 889.75932277 19.55133595 889.75909463 C5.34166377 889.75514834 -8.86795708 889.73769975 -23.07760943 889.7144061 C-37.67076654 889.69067718 -52.26389791 889.67822952 -66.85707462 889.67706418 C-75.04879926 889.6761482 -83.24045704 889.67041539 -91.43216324 889.65224457 C-98.40917587 889.63682267 -105.38610098 889.63173536 -112.36312743 889.63998267 C-115.92082817 889.64388202 -119.47835279 889.64299483 -123.03603172 889.62892532 C-126.89910673 889.61378831 -130.76193562 889.62207428 -134.62503052 889.63250732 C-135.74100337 889.62445092 -136.85697623 889.61639452 -138.00676644 889.60809398 C-147.94198727 889.67074346 -156.24844593 891.42756241 -163.95703125 897.921875 C-173.73120593 907.86424771 -174.30020498 919.74410866 -174.2784729 933.00930786 C-174.2871615 934.92710141 -174.2871615 934.92710141 -174.29602563 936.88363826 C-174.31172673 940.40695058 -174.31525081 943.93018295 -174.31667423 947.45352602 C-174.32038569 951.26254294 -174.33554977 955.07151687 -174.34928894 958.88050842 C-174.37151099 965.47141184 -174.3865546 972.06229986 -174.39665604 978.65323257 C-174.41127131 988.18248796 -174.43681606 997.71168969 -174.46498732 1007.2409135 C-174.51040365 1022.70323799 -174.54703975 1038.16557023 -174.578125 1053.62792969 C-174.6083317 1068.64389404 -174.64269169 1083.65983946 -174.68261719 1098.67578125 C-174.68630951 1100.06527383 -174.68630951 1100.06527383 -174.69007643 1101.48283698 C-174.70245144 1106.13017698 -174.71490789 1110.77751675 -174.72740483 1115.42485642 C-174.83089535 1153.94987803 -174.92012405 1192.47492262 -175 1231 C-219.14589829 1231.04578951 -263.29179407 1231.08102535 -307.43771144 1231.10213066 C-312.65093852 1231.10463204 -317.86416556 1231.10722068 -323.07739258 1231.10986328 C-324.63416537 1231.11065021 -324.63416537 1231.11065021 -326.22238811 1231.11145304 C-343.02146643 1231.12015285 -359.82053104 1231.13592049 -376.61960123 1231.15430559 C-393.86025268 1231.17301643 -411.10089697 1231.18411923 -428.34155816 1231.18817699 C-438.97776642 1231.19091958 -449.61393595 1231.19957827 -460.25013229 1231.21583293 C-467.54628321 1231.22641442 -474.84241415 1231.22959798 -482.13857219 1231.22700275 C-486.34644017 1231.22572328 -490.5542405 1231.22766848 -494.76209641 1231.23841095 C-498.61960599 1231.24818678 -502.47700282 1231.24860695 -506.33451774 1231.24179779 C-507.72501608 1231.24095696 -509.11552164 1231.24345719 -510.50600592 1231.24976636 C-524.42185295 1231.30920154 -536.72357266 1230.35437266 -547.3984375 1220.703125 C-555.07121626 1212.54377978 -556.29715497 1203.97601416 -556.2796154 1193.15725422 C-556.28551825 1191.94981628 -556.2914211 1190.74237834 -556.29750282 1189.49835137 C-556.31186499 1186.13982745 -556.3172953 1182.78150325 -556.31894872 1179.42296313 C-556.3228921 1175.77171555 -556.33824508 1172.12051285 -556.35209382 1168.46929187 C-556.37771774 1161.22443847 -556.39248766 1153.97959937 -556.40389139 1146.73471122 C-556.41801228 1138.05809496 -556.44352802 1129.38152131 -556.46898977 1120.70493228 C-556.53268156 1098.73829568 -556.57235815 1076.77163086 -556.60756081 1054.80493286 C-556.61709741 1048.85601378 -556.62711454 1042.90709555 -556.63717127 1036.95817733 C-556.69925703 1000.03419224 -556.75249343 963.11019993 -556.78600883 926.18617725 C-556.79388333 917.6325002 -556.80190702 909.07882328 -556.81005859 900.52514648 C-556.81106193 899.46245931 -556.81206527 898.39977214 -556.81309901 897.30488232 C-556.84594476 862.83993695 -556.922874 828.37527531 -557.0246328 793.91046956 C-557.1290477 758.48153941 -557.19463344 723.0527604 -557.2091639 687.62367326 C-557.21122112 682.62104511 -557.21369375 677.61841725 -557.21640396 672.61578941 C-557.21692004 671.63122378 -557.21743611 670.64665814 -557.21796783 669.63225718 C-557.22736152 653.7809332 -557.27724562 637.92998308 -557.34190682 622.07879909 C-557.40593842 606.14988832 -557.42593618 590.22139901 -557.40104292 574.29237483 C-557.38755781 564.8270739 -557.40749931 555.36321945 -557.47529693 545.89814431 C-557.51728556 539.57506745 -557.51565114 533.25297082 -557.4786301 526.92986551 C-557.45877422 523.32671526 -557.45776965 519.72632093 -557.50995575 516.12343249 C-557.83143243 492.52248255 -557.83143243 492.52248255 -551.86485893 486.36689354 C-549.40176525 484.28995202 -546.76888001 482.63906448 -544 481 C-542.20938353 479.58721919 -540.43508687 478.15317291 -538.6875 476.6875 C-537.79804687 475.97207031 -536.90859375 475.25664063 -535.9921875 474.51953125 C-530.95849952 470.28098197 -526.21878792 465.72920071 -521.4296875 461.21875 C-517.23191078 457.26683983 -512.91709495 453.47654227 -508.52246094 449.74560547 C-506.78440609 448.2695406 -505.04794577 446.79163162 -503.3125 445.3125 C-502.41072021 444.54401733 -502.41072021 444.54401733 -501.49072266 443.76000977 C-496.77497386 439.7176704 -492.21585158 435.52823035 -487.68041992 431.28588867 C-484.42668335 428.2616298 -481.09759081 425.39999502 -477.625 422.625 C-471.60330632 417.7935386 -466.04562085 412.50788329 -460.4296875 407.21875 C-456.23191078 403.26683983 -451.91709495 399.47654227 -447.52246094 395.74560547 C-439.82207553 389.20595663 -432.27591084 382.54908783 -424.87890625 375.66796875 C-420.3086082 371.4325365 -415.60835337 367.36473809 -410.859375 363.33203125 C-403.71889643 357.2583712 -396.74233219 351.05272228 -389.87890625 344.66796875 C-385.3086082 340.4325365 -380.60835337 336.36473809 -375.859375 332.33203125 C-369.33372469 326.78083657 -362.93741372 321.13854121 -356.68041992 315.28588867 C-353.42668335 312.2616298 -350.09759081 309.39999502 -346.625 306.625 C-340.60330632 301.7935386 -335.04562085 296.50788329 -329.4296875 291.21875 C-325.23191078 287.26683983 -320.91709495 283.47654227 -316.52246094 279.74560547 C-308.82207553 273.20595663 -301.27591084 266.54908783 -293.87890625 259.66796875 C-289.3086082 255.4325365 -284.60835337 251.36473809 -279.859375 247.33203125 C-272.71889643 241.2583712 -265.74233219 235.05272228 -258.87890625 228.66796875 C-254.3086082 224.4325365 -249.60835337 220.36473809 -244.859375 216.33203125 C-238.33372469 210.78083657 -231.93741372 205.13854121 -225.68041992 199.28588867 C-222.42668335 196.2616298 -219.09759081 193.39999502 -215.625 190.625 C-209.60330632 185.7935386 -204.04562085 180.50788329 -198.4296875 175.21875 C-194.23191078 171.26683983 -189.91709495 167.47654227 -185.52246094 163.74560547 C-177.82207553 157.20595663 -170.27591084 150.54908783 -162.87890625 143.66796875 C-158.3086082 139.4325365 -153.60835337 135.36473809 -148.859375 131.33203125 C-142.33372469 125.78083657 -135.93741372 120.13854121 -129.68041992 114.28588867 C-126.42668335 111.2616298 -123.09759081 108.39999502 -119.625 105.625 C-113.60330632 100.7935386 -108.04562085 95.50788329 -102.4296875 90.21875 C-98.23191078 86.26683983 -93.91709495 82.47654227 -89.52246094 78.74560547 C-81.82207553 72.20595663 -74.27591084 65.54908783 -66.87890625 58.66796875 C-62.3086082 54.4325365 -57.60835337 50.36473809 -52.859375 46.33203125 C-45.71889643 40.2583712 -38.74233219 34.05272228 -31.87890625 27.66796875 C-28.31647656 24.36655833 -24.68593181 21.1621415 -21 18 C-20.47760742 17.55124512 -19.95521484 17.10249023 -19.41699219 16.64013672 C-15.86829255 13.5920957 -12.31584669 10.54846192 -8.76123047 7.50732422 C-5.83931262 5.0066421 -2.91967973 2.50329453 0 0 Z " fill="#FDFDFD" transform="translate(926,493)"/>
<path d="M0 0 C1.875 0.75 1.875 0.75 3.875 1.75 C3.875 1.09 3.875 0.43 3.875 -0.25 C7.24195916 0.34329677 8.99743105 1.44976641 11.5 3.75 C12.19351563 4.3790625 12.88703125 5.008125 13.6015625 5.65625 C14.72691406 6.69265625 14.72691406 6.69265625 15.875 7.75 C17.54035162 9.25145987 19.20705799 10.75141826 20.875 12.25 C21.72578125 13.01699219 22.5765625 13.78398437 23.453125 14.57421875 C27.92332179 18.59018586 32.44653121 22.54039496 37.02734375 26.4296875 C44.1652142 32.49798107 51.13669262 38.70102183 57.99609375 45.08203125 C62.5663918 49.3174635 67.26664663 53.38526191 72.015625 57.41796875 C79.15610357 63.4916288 86.13266781 69.69727772 92.99609375 76.08203125 C97.5663918 80.3174635 102.26664663 84.38526191 107.015625 88.41796875 C114.15610357 94.4916288 121.13266781 100.69727772 127.99609375 107.08203125 C132.5663918 111.3174635 137.26664663 115.38526191 142.015625 119.41796875 C149.15610357 125.4916288 156.13266781 131.69727772 162.99609375 138.08203125 C167.5663918 142.3174635 172.26664663 146.38526191 177.015625 150.41796875 C184.15610357 156.4916288 191.13266781 162.69727772 197.99609375 169.08203125 C202.5663918 173.3174635 207.26664663 177.38526191 212.015625 181.41796875 C219.15610357 187.4916288 226.13266781 193.69727772 232.99609375 200.08203125 C237.5663918 204.3174635 242.26664663 208.38526191 247.015625 212.41796875 C254.15610357 218.4916288 261.13266781 224.69727772 267.99609375 231.08203125 C272.5663918 235.3174635 277.26664663 239.38526191 282.015625 243.41796875 C289.15610357 249.4916288 296.13266781 255.69727772 302.99609375 262.08203125 C307.5663918 266.3174635 312.26664663 270.38526191 317.015625 274.41796875 C324.15610357 280.4916288 331.13266781 286.69727772 337.99609375 293.08203125 C342.5663918 297.3174635 347.26664663 301.38526191 352.015625 305.41796875 C359.15610357 311.4916288 366.13266781 317.69727772 372.99609375 324.08203125 C377.5663918 328.3174635 382.26664663 332.38526191 387.015625 336.41796875 C394.15610357 342.4916288 401.13266781 348.69727772 407.99609375 355.08203125 C412.5663918 359.3174635 417.26664663 363.38526191 422.015625 367.41796875 C429.15610357 373.4916288 436.13266781 379.69727772 442.99609375 386.08203125 C447.5663918 390.3174635 452.26664663 394.38526191 457.015625 398.41796875 C464.15610357 404.4916288 471.13266781 410.69727772 477.99609375 417.08203125 C482.5663918 421.3174635 487.26664663 425.38526191 492.015625 429.41796875 C499.15610357 435.4916288 506.13266781 441.69727772 512.99609375 448.08203125 C517.5663918 452.3174635 522.26664663 456.38526191 527.015625 460.41796875 C534.15610357 466.4916288 541.13266781 472.69727772 547.99609375 479.08203125 C552.5663918 483.3174635 557.26664663 487.38526191 562.015625 491.41796875 C569.15610357 497.4916288 576.13266781 503.69727772 582.99609375 510.08203125 C587.5663918 514.3174635 592.26664663 518.38526191 597.015625 522.41796875 C604.15610357 528.4916288 611.13266781 534.69727772 617.99609375 541.08203125 C622.5663918 545.3174635 627.26664663 549.38526191 632.015625 553.41796875 C639.15610357 559.4916288 646.13266781 565.69727772 652.99609375 572.08203125 C657.5663918 576.3174635 662.26664663 580.38526191 667.015625 584.41796875 C674.15610357 590.4916288 681.13266781 596.69727772 687.99609375 603.08203125 C692.5663918 607.3174635 697.26664663 611.38526191 702.015625 615.41796875 C709.15610357 621.4916288 716.13266781 627.69727772 722.99609375 634.08203125 C727.5663918 638.3174635 732.26664663 642.38526191 737.015625 646.41796875 C744.15610357 652.4916288 751.13266781 658.69727772 757.99609375 665.08203125 C762.57846391 669.32865109 767.29331682 673.40504613 772.05078125 677.453125 C779.80983269 684.06344495 787.41225964 690.8066445 794.875 697.75 C793.31267979 701.42956291 791.03915918 703.91515793 788.3125 706.8125 C784.93738898 710.44031912 781.71497318 714.12159088 778.625 718 C774.34141009 723.3165123 769.71636173 728.2463606 765.02832031 733.20214844 C761.66073111 736.78055272 758.4414731 740.40546656 755.375 744.25 C751.1893982 749.49762017 746.63620798 754.33117549 742.02734375 759.203125 C737.89958273 763.58942829 734.06552789 768.12723487 730.3125 772.83984375 C726.55193057 777.32962616 722.51937884 781.55968508 718.48242188 785.80078125 C717.90041016 786.414375 717.31839844 787.02796875 716.71875 787.66015625 C716.19474609 788.20808838 715.67074219 788.75602051 715.13085938 789.32055664 C713.77084824 790.74632699 713.77084824 790.74632699 712.875 792.75 C708.33927424 791.51298388 706.06648173 789.06613323 702.9296875 785.78125 C700.6932231 783.5702966 698.33624601 781.64481137 695.875 779.6875 C689.73092734 774.74681812 684.04166169 769.37140339 678.3046875 763.96875 C674.10691078 760.01683983 669.79209495 756.22654227 665.39746094 752.49560547 C657.69707553 745.95595663 650.15091084 739.29908783 642.75390625 732.41796875 C638.1836082 728.1825365 633.48335337 724.11473809 628.734375 720.08203125 C621.59389643 714.0083712 614.61733219 707.80272228 607.75390625 701.41796875 C603.1836082 697.1825365 598.48335337 693.11473809 593.734375 689.08203125 C586.59389643 683.0083712 579.61733219 676.80272228 572.75390625 670.41796875 C568.1836082 666.1825365 563.48335337 662.11473809 558.734375 658.08203125 C551.59389643 652.0083712 544.61733219 645.80272228 537.75390625 639.41796875 C533.1836082 635.1825365 528.48335337 631.11473809 523.734375 627.08203125 C516.59389643 621.0083712 509.61733219 614.80272228 502.75390625 608.41796875 C498.1836082 604.1825365 493.48335337 600.11473809 488.734375 596.08203125 C481.59389643 590.0083712 474.61733219 583.80272228 467.75390625 577.41796875 C463.1836082 573.1825365 458.48335337 569.11473809 453.734375 565.08203125 C446.59389643 559.0083712 439.61733219 552.80272228 432.75390625 546.41796875 C428.1836082 542.1825365 423.48335337 538.11473809 418.734375 534.08203125 C411.59389643 528.0083712 404.61733219 521.80272228 397.75390625 515.41796875 C393.1836082 511.1825365 388.48335337 507.11473809 383.734375 503.08203125 C376.59389643 497.0083712 369.61733219 490.80272228 362.75390625 484.41796875 C358.1836082 480.1825365 353.48335337 476.11473809 348.734375 472.08203125 C341.59389643 466.0083712 334.61733219 459.80272228 327.75390625 453.41796875 C323.1836082 449.1825365 318.48335337 445.11473809 313.734375 441.08203125 C306.59389643 435.0083712 299.61733219 428.80272228 292.75390625 422.41796875 C288.1836082 418.1825365 283.48335337 414.11473809 278.734375 410.08203125 C271.59389643 404.0083712 264.61733219 397.80272228 257.75390625 391.41796875 C253.1836082 387.1825365 248.48335337 383.11473809 243.734375 379.08203125 C236.59389643 373.0083712 229.61733219 366.80272228 222.75390625 360.41796875 C218.1836082 356.1825365 213.48335337 352.11473809 208.734375 348.08203125 C201.59389643 342.0083712 194.61733219 335.80272228 187.75390625 329.41796875 C183.1836082 325.1825365 178.48335337 321.11473809 173.734375 317.08203125 C166.59389643 311.0083712 159.61733219 304.80272228 152.75390625 298.41796875 C148.1836082 294.1825365 143.48335337 290.11473809 138.734375 286.08203125 C131.59389643 280.0083712 124.61733219 273.80272228 117.75390625 267.41796875 C113.1836082 263.1825365 108.48335337 259.11473809 103.734375 255.08203125 C96.59389643 249.0083712 89.61733219 242.80272228 82.75390625 236.41796875 C78.1836082 232.1825365 73.48335337 228.11473809 68.734375 224.08203125 C61.59389643 218.0083712 54.61733219 211.80272228 47.75390625 205.41796875 C43.1836082 201.1825365 38.48335337 197.11473809 33.734375 193.08203125 C32.55174146 192.07592255 31.36946178 191.06939778 30.1875 190.0625 C29.5886499 189.55251465 28.9897998 189.0425293 28.37280273 188.51708984 C24.15264932 184.90110249 20.05567739 181.17384563 16 177.375 C11.50101192 173.16236039 6.91309264 169.30630069 1.875 165.75 C1.25625 166.38615234 1.25625 166.38615234 0.625 167.03515625 C-4.75107367 172.49523107 -10.45171018 177.48041075 -16.2890625 182.4375 C-23.42140014 188.50496445 -30.39014402 194.70423252 -37.24609375 201.08203125 C-41.8163918 205.3174635 -46.51664663 209.38526191 -51.265625 213.41796875 C-58.40610357 219.4916288 -65.38266781 225.69727772 -72.24609375 232.08203125 C-76.8163918 236.3174635 -81.51664663 240.38526191 -86.265625 244.41796875 C-92.79127531 249.96916343 -99.18758628 255.61145879 -105.44458008 261.46411133 C-108.69831665 264.4883702 -112.02740919 267.35000498 -115.5 270.125 C-121.52169368 274.9564614 -127.07937915 280.24211671 -132.6953125 285.53125 C-136.89308922 289.48316017 -141.20790505 293.27345773 -145.60253906 297.00439453 C-153.30292447 303.54404337 -160.84908916 310.20091217 -168.24609375 317.08203125 C-172.8163918 321.3174635 -177.51664663 325.38526191 -182.265625 329.41796875 C-189.40610357 335.4916288 -196.38266781 341.69727772 -203.24609375 348.08203125 C-207.8163918 352.3174635 -212.51664663 356.38526191 -217.265625 360.41796875 C-223.79127531 365.96916343 -230.18758628 371.61145879 -236.44458008 377.46411133 C-239.69831665 380.4883702 -243.02740919 383.35000498 -246.5 386.125 C-252.52169368 390.9564614 -258.07937915 396.24211671 -263.6953125 401.53125 C-267.89308922 405.48316017 -272.20790505 409.27345773 -276.60253906 413.00439453 C-284.30292447 419.54404337 -291.84908916 426.20091217 -299.24609375 433.08203125 C-303.8163918 437.3174635 -308.51664663 441.38526191 -313.265625 445.41796875 C-320.40610357 451.4916288 -327.38266781 457.69727772 -334.24609375 464.08203125 C-338.8163918 468.3174635 -343.51664663 472.38526191 -348.265625 476.41796875 C-354.79127531 481.96916343 -361.18758628 487.61145879 -367.44458008 493.46411133 C-370.69831665 496.4883702 -374.02740919 499.35000498 -377.5 502.125 C-383.52169368 506.9564614 -389.07937915 512.24211671 -394.6953125 517.53125 C-398.89308922 521.48316017 -403.20790505 525.27345773 -407.60253906 529.00439453 C-415.30292447 535.54404337 -422.84908916 542.20091217 -430.24609375 549.08203125 C-434.8163918 553.3174635 -439.51664663 557.38526191 -444.265625 561.41796875 C-451.40610357 567.4916288 -458.38266781 573.69727772 -465.24609375 580.08203125 C-469.8163918 584.3174635 -474.51664663 588.38526191 -479.265625 592.41796875 C-485.79127531 597.96916343 -492.18758628 603.61145879 -498.44458008 609.46411133 C-501.69831665 612.4883702 -505.02740919 615.35000498 -508.5 618.125 C-514.52169368 622.9564614 -520.07937915 628.24211671 -525.6953125 633.53125 C-529.89308922 637.48316017 -534.20790505 641.27345773 -538.60253906 645.00439453 C-546.30292447 651.54404337 -553.84908916 658.20091217 -561.24609375 665.08203125 C-565.8163918 669.3174635 -570.51664663 673.38526191 -575.265625 677.41796875 C-582.40610357 683.4916288 -589.38266781 689.69727772 -596.24609375 696.08203125 C-600.8163918 700.3174635 -605.51664663 704.38526191 -610.265625 708.41796875 C-616.79127531 713.96916343 -623.18758628 719.61145879 -629.44458008 725.46411133 C-632.69831665 728.4883702 -636.02740919 731.35000498 -639.5 734.125 C-645.52169368 738.9564614 -651.07937915 744.24211671 -656.6953125 749.53125 C-660.89308922 753.48316017 -665.20790505 757.27345773 -669.60253906 761.00439453 C-676.17180461 766.58342566 -682.68553774 772.19489882 -689 778.0625 C-689.53906982 778.56273682 -690.07813965 779.06297363 -690.63354492 779.57836914 C-692.13091962 780.96867262 -693.62796901 782.35932644 -695.125 783.75 C-696.61715826 785.13350596 -698.11588317 786.51001231 -699.625 787.875 C-700.1921875 788.39320313 -700.759375 788.91140625 -701.34375 789.4453125 C-703.47847588 791.00890558 -705.64390756 791.85782635 -708.125 792.75 C-708.61226562 792.12996094 -709.09953125 791.50992188 -709.6015625 790.87109375 C-715.37992013 783.65339977 -721.55675657 776.91998872 -727.89453125 770.1953125 C-730.83532579 767.07224078 -733.68899177 763.88727908 -736.48828125 760.63671875 C-738.50373772 758.31341213 -740.56348462 756.03251535 -742.625 753.75 C-747.42407792 748.42665307 -752.1657795 743.06136661 -756.8046875 737.59765625 C-762.39674904 731.01995688 -768.07764415 724.55925821 -773.95996094 718.23925781 C-779.54633171 712.23715712 -784.90775093 706.07393826 -790.125 699.75 C-788.52018992 695.49420618 -785.30341288 692.89107954 -782 689.9375 C-781.41178467 689.40342529 -780.82356934 688.86935059 -780.2175293 688.3190918 C-776.53821247 684.9877296 -772.82605252 681.69424099 -769.0703125 678.44921875 C-766.7883471 676.45593572 -764.55271426 674.41506973 -762.3125 672.375 C-758.93559018 669.32141133 -755.49282868 666.40570795 -751.9375 663.5625 C-745.86683338 658.65595269 -740.23431085 653.31799383 -734.5546875 647.96875 C-730.35691078 644.01683983 -726.04209495 640.22654227 -721.64746094 636.49560547 C-713.94707553 629.95595663 -706.40091084 623.29908783 -699.00390625 616.41796875 C-694.4336082 612.1825365 -689.73335337 608.11473809 -684.984375 604.08203125 C-677.84389643 598.0083712 -670.86733219 591.80272228 -664.00390625 585.41796875 C-659.4336082 581.1825365 -654.73335337 577.11473809 -649.984375 573.08203125 C-643.45872469 567.53083657 -637.06241372 561.88854121 -630.80541992 556.03588867 C-627.55168335 553.0116298 -624.22259081 550.14999502 -620.75 547.375 C-614.72830632 542.5435386 -609.17062085 537.25788329 -603.5546875 531.96875 C-599.35691078 528.01683983 -595.04209495 524.22654227 -590.64746094 520.49560547 C-582.94707553 513.95595663 -575.40091084 507.29908783 -568.00390625 500.41796875 C-563.4336082 496.1825365 -558.73335337 492.11473809 -553.984375 488.08203125 C-546.84389643 482.0083712 -539.86733219 475.80272228 -533.00390625 469.41796875 C-528.4336082 465.1825365 -523.73335337 461.11473809 -518.984375 457.08203125 C-512.45872469 451.53083657 -506.06241372 445.88854121 -499.80541992 440.03588867 C-496.55168335 437.0116298 -493.22259081 434.14999502 -489.75 431.375 C-483.72830632 426.5435386 -478.17062085 421.25788329 -472.5546875 415.96875 C-468.35691078 412.01683983 -464.04209495 408.22654227 -459.64746094 404.49560547 C-451.94707553 397.95595663 -444.40091084 391.29908783 -437.00390625 384.41796875 C-432.4336082 380.1825365 -427.73335337 376.11473809 -422.984375 372.08203125 C-415.84389643 366.0083712 -408.86733219 359.80272228 -402.00390625 353.41796875 C-397.4336082 349.1825365 -392.73335337 345.11473809 -387.984375 341.08203125 C-381.45872469 335.53083657 -375.06241372 329.88854121 -368.80541992 324.03588867 C-365.55168335 321.0116298 -362.22259081 318.14999502 -358.75 315.375 C-352.72830632 310.5435386 -347.17062085 305.25788329 -341.5546875 299.96875 C-337.35691078 296.01683983 -333.04209495 292.22654227 -328.64746094 288.49560547 C-320.94707553 281.95595663 -313.40091084 275.29908783 -306.00390625 268.41796875 C-301.4336082 264.1825365 -296.73335337 260.11473809 -291.984375 256.08203125 C-284.84389643 250.0083712 -277.86733219 243.80272228 -271.00390625 237.41796875 C-266.4336082 233.1825365 -261.73335337 229.11473809 -256.984375 225.08203125 C-249.84389643 219.0083712 -242.86733219 212.80272228 -236.00390625 206.41796875 C-231.4336082 202.1825365 -226.73335337 198.11473809 -221.984375 194.08203125 C-215.45872469 188.53083657 -209.06241372 182.88854121 -202.80541992 177.03588867 C-199.55168335 174.0116298 -196.22259081 171.14999502 -192.75 168.375 C-186.72830632 163.5435386 -181.17062085 158.25788329 -175.5546875 152.96875 C-171.35691078 149.01683983 -167.04209495 145.22654227 -162.64746094 141.49560547 C-154.94707553 134.95595663 -147.40091084 128.29908783 -140.00390625 121.41796875 C-135.4336082 117.1825365 -130.73335337 113.11473809 -125.984375 109.08203125 C-118.84389643 103.0083712 -111.86733219 96.80272228 -105.00390625 90.41796875 C-100.4336082 86.1825365 -95.73335337 82.11473809 -90.984375 78.08203125 C-84.45872469 72.53083657 -78.06241372 66.88854121 -71.80541992 61.03588867 C-68.55168335 58.0116298 -65.22259081 55.14999502 -61.75 52.375 C-55.72830632 47.5435386 -50.17062085 42.25788329 -44.5546875 36.96875 C-40.35691078 33.01683983 -36.04209495 29.22654227 -31.64746094 25.49560547 C-29.90940613 24.01954063 -28.17294965 22.54162699 -26.4375 21.0625 C-25.54333374 20.30054321 -25.54333374 20.30054321 -24.63110352 19.52319336 C-19.77130633 15.35737391 -15.05011247 11.05653658 -10.38793945 6.67114258 C-2.9041656 -0.34166654 -2.9041656 -0.34166654 0 0 Z " fill="#FAFAFA" transform="translate(924.125,224.25)"/>
<path d="M0 0 C66.33 0 132.66 0 201 0 C200 85 200 85 199 120 C196.36 122.31 193.72 124.62 191 127 C189.03486401 128.78420275 187.07598678 130.57533629 185.125 132.375 C179.78480833 137.28919348 174.40202801 142.15380767 169 147 C167.33307353 148.49971128 165.66640851 149.99971321 164 151.5 C161.52497766 153.72829114 159.04928246 155.9557884 156.5703125 158.1796875 C151.97969436 162.30097727 147.41550032 166.44870713 142.875 170.625 C139.63782784 173.60218281 136.38862271 176.55952856 133.0625 179.4375 C129.47041409 182.54964124 125.98448008 185.76872086 122.5 189 C118.41429121 192.78881936 114.29606727 196.52171864 110.08203125 200.16796875 C106.86508207 202.99864261 103.7202932 205.90767016 100.56665039 208.80834961 C95.74396118 213.24236939 90.87650331 217.62525909 86 222 C84.33307353 223.49971128 82.66640851 224.99971321 81 226.5 C78.52497766 228.72829114 76.04928246 230.9557884 73.5703125 233.1796875 C68.9796939 237.30097768 64.41552893 241.44873788 59.875 245.625 C56.00361736 249.1850179 52.09052085 252.68705868 48.1171875 256.1328125 C44.89111482 258.97794671 41.7326456 261.89632879 38.56689453 264.80810547 C33.74415109 269.24223628 28.8765888 273.6251824 24 278 C22.33307353 279.49971128 20.66640851 280.99971321 19 282.5 C18.18273437 283.23347656 17.36546875 283.96695312 16.5234375 284.72265625 C14.77040955 286.30472327 13.02621528 287.89661158 11.2890625 289.49609375 C10.40992188 290.30175781 9.53078125 291.10742188 8.625 291.9375 C7.83351563 292.66839844 7.04203125 293.39929688 6.2265625 294.15234375 C4 296 4 296 0 298 C0 199.66 0 101.32 0 0 Z " fill="#FAFAFA" transform="translate(370,324)"/>
</svg>
